<svg width="379" height="72" viewBox="0 0 379 72" fill="none" xmlns="http://www.w3.org/2000/svg">
<path d="M41.374 17V7.00586H42.5361V15.9473H46.9453V17H41.374ZM54.9434 13.2471C54.9434 14.4684 54.6357 15.4232 54.0205 16.1113C53.4053 16.7949 52.5553 17.1367 51.4707 17.1367C50.8008 17.1367 50.2061 16.9795 49.6865 16.665C49.167 16.3506 48.766 15.8994 48.4834 15.3115C48.2008 14.7236 48.0596 14.0355 48.0596 13.2471C48.0596 12.0257 48.3649 11.0755 48.9756 10.3965C49.5863 9.71289 50.4339 9.37109 51.5186 9.37109C52.5667 9.37109 53.3984 9.71973 54.0137 10.417C54.6335 11.1143 54.9434 12.0576 54.9434 13.2471ZM49.2354 13.2471C49.2354 14.2041 49.4268 14.9333 49.8096 15.4346C50.1924 15.9359 50.7552 16.1865 51.498 16.1865C52.2409 16.1865 52.8037 15.9382 53.1865 15.4414C53.5739 14.9401 53.7676 14.2087 53.7676 13.2471C53.7676 12.2946 53.5739 11.5723 53.1865 11.0801C52.8037 10.5833 52.2363 10.335 51.4844 10.335C50.7415 10.335 50.181 10.5788 49.8027 11.0664C49.4245 11.554 49.2354 12.2809 49.2354 13.2471ZM60.3574 9.37109C60.6901 9.37109 60.9886 9.39844 61.2529 9.45312L61.0957 10.5059C60.7858 10.4375 60.5124 10.4033 60.2754 10.4033C59.6693 10.4033 59.1497 10.6494 58.7168 11.1416C58.2884 11.6338 58.0742 12.2467 58.0742 12.9805V17H56.9395V9.50781H57.876L58.0059 10.8955H58.0605C58.3385 10.4079 58.6735 10.0319 59.0654 9.76758C59.4574 9.50326 59.888 9.37109 60.3574 9.37109ZM65.8193 17.1367C64.7119 17.1367 63.8369 16.7995 63.1943 16.125C62.5563 15.4505 62.2373 14.514 62.2373 13.3154C62.2373 12.1077 62.5335 11.1484 63.126 10.4375C63.723 9.72656 64.5228 9.37109 65.5254 9.37109C66.4642 9.37109 67.207 9.68099 67.7539 10.3008C68.3008 10.916 68.5742 11.7295 68.5742 12.7412V13.459H63.4131C63.4359 14.3385 63.6569 15.0062 64.0762 15.4619C64.5 15.9176 65.0947 16.1455 65.8604 16.1455C66.667 16.1455 67.4645 15.9769 68.2529 15.6396V16.6514C67.8519 16.8245 67.4714 16.9476 67.1113 17.0205C66.7559 17.098 66.3252 17.1367 65.8193 17.1367ZM65.5117 10.3213C64.9102 10.3213 64.4294 10.5173 64.0693 10.9092C63.7139 11.3011 63.5042 11.8434 63.4404 12.5361H67.3574C67.3574 11.8206 67.1979 11.2738 66.8789 10.8955C66.5599 10.5127 66.1042 10.3213 65.5117 10.3213ZM80.0654 17V12.126C80.0654 11.529 79.9378 11.0824 79.6826 10.7861C79.4274 10.4854 79.0309 10.335 78.4932 10.335C77.7868 10.335 77.265 10.5378 76.9277 10.9434C76.5905 11.349 76.4219 11.9733 76.4219 12.8164V17H75.2871V12.126C75.2871 11.529 75.1595 11.0824 74.9043 10.7861C74.6491 10.4854 74.2503 10.335 73.708 10.335C72.9971 10.335 72.4753 10.5492 72.1426 10.9775C71.8145 11.4014 71.6504 12.0986 71.6504 13.0693V17H70.5156V9.50781H71.4385L71.623 10.5332H71.6777C71.8919 10.1686 72.1927 9.88379 72.5801 9.67871C72.972 9.47363 73.4095 9.37109 73.8926 9.37109C75.0638 9.37109 75.8294 9.79492 76.1895 10.6426H76.2441C76.4674 10.2507 76.791 9.94076 77.2148 9.71289C77.6387 9.48503 78.1217 9.37109 78.6641 9.37109C79.5117 9.37109 80.1452 9.58984 80.5645 10.0273C80.9883 10.4603 81.2002 11.1553 81.2002 12.1123V17H80.0654ZM88.3164 17H87.1816V9.50781H88.3164V17ZM87.0859 7.47754C87.0859 7.21777 87.1497 7.02865 87.2773 6.91016C87.4049 6.78711 87.5645 6.72559 87.7559 6.72559C87.9382 6.72559 88.0954 6.78711 88.2275 6.91016C88.3597 7.0332 88.4258 7.22233 88.4258 7.47754C88.4258 7.73275 88.3597 7.92415 88.2275 8.05176C88.0954 8.1748 87.9382 8.23633 87.7559 8.23633C87.5645 8.23633 87.4049 8.1748 87.2773 8.05176C87.1497 7.92415 87.0859 7.73275 87.0859 7.47754ZM94.209 17.1367C93.7214 17.1367 93.2747 17.0479 92.8691 16.8701C92.4681 16.6878 92.1309 16.4098 91.8574 16.0361H91.7754C91.8301 16.4736 91.8574 16.8883 91.8574 17.2803V20.3633H90.7227V9.50781H91.6455L91.8027 10.5332H91.8574C92.1491 10.123 92.4886 9.82682 92.876 9.64453C93.2633 9.46224 93.7077 9.37109 94.209 9.37109C95.2025 9.37109 95.9681 9.71061 96.5059 10.3896C97.0482 11.0687 97.3193 12.0212 97.3193 13.2471C97.3193 14.4775 97.0436 15.4346 96.4922 16.1182C95.9453 16.7972 95.1842 17.1367 94.209 17.1367ZM94.0449 10.335C93.2793 10.335 92.7256 10.5469 92.3838 10.9707C92.042 11.3945 91.8665 12.069 91.8574 12.9941V13.2471C91.8574 14.2998 92.0329 15.054 92.3838 15.5098C92.7347 15.9609 93.2975 16.1865 94.0723 16.1865C94.7194 16.1865 95.2253 15.9245 95.5898 15.4004C95.959 14.8763 96.1436 14.154 96.1436 13.2334C96.1436 12.2992 95.959 11.5837 95.5898 11.0869C95.2253 10.5856 94.7103 10.335 94.0449 10.335ZM104.142 14.9561C104.142 15.6533 103.882 16.1911 103.362 16.5693C102.843 16.9476 102.114 17.1367 101.175 17.1367C100.181 17.1367 99.4066 16.9795 98.8506 16.665V15.6123C99.2106 15.7946 99.5957 15.9382 100.006 16.043C100.421 16.1478 100.819 16.2002 101.202 16.2002C101.795 16.2002 102.25 16.1068 102.569 15.9199C102.888 15.7285 103.048 15.4391 103.048 15.0518C103.048 14.7601 102.92 14.5117 102.665 14.3066C102.414 14.097 101.922 13.8509 101.188 13.5684C100.491 13.3086 99.9945 13.083 99.6982 12.8916C99.4066 12.6956 99.1878 12.4746 99.042 12.2285C98.9007 11.9824 98.8301 11.6885 98.8301 11.3467C98.8301 10.736 99.0785 10.2552 99.5752 9.9043C100.072 9.54883 100.753 9.37109 101.619 9.37109C102.426 9.37109 103.214 9.53516 103.984 9.86328L103.581 10.7861C102.829 10.4762 102.148 10.3213 101.537 10.3213C100.999 10.3213 100.594 10.4056 100.32 10.5742C100.047 10.7428 99.9102 10.9753 99.9102 11.2715C99.9102 11.472 99.9603 11.6429 100.061 11.7842C100.165 11.9255 100.332 12.0599 100.56 12.1875C100.787 12.3151 101.225 12.4997 101.872 12.7412C102.761 13.0648 103.36 13.3906 103.67 13.7188C103.984 14.0469 104.142 14.4593 104.142 14.9561ZM107.061 9.50781V14.3682C107.061 14.9788 107.2 15.4346 107.478 15.7354C107.756 16.0361 108.191 16.1865 108.783 16.1865C109.567 16.1865 110.139 15.9723 110.499 15.5439C110.864 15.1156 111.046 14.416 111.046 13.4453V9.50781H112.181V17H111.244L111.08 15.9951H111.019C110.786 16.3643 110.463 16.6468 110.048 16.8428C109.638 17.0387 109.168 17.1367 108.64 17.1367C107.728 17.1367 107.045 16.9202 106.589 16.4873C106.138 16.0544 105.912 15.3617 105.912 14.4092V9.50781H107.061ZM124.144 17V12.126C124.144 11.529 124.016 11.0824 123.761 10.7861C123.506 10.4854 123.109 10.335 122.571 10.335C121.865 10.335 121.343 10.5378 121.006 10.9434C120.669 11.349 120.5 11.9733 120.5 12.8164V17H119.365V12.126C119.365 11.529 119.238 11.0824 118.982 10.7861C118.727 10.4854 118.328 10.335 117.786 10.335C117.075 10.335 116.553 10.5492 116.221 10.9775C115.893 11.4014 115.729 12.0986 115.729 13.0693V17H114.594V9.50781H115.517L115.701 10.5332H115.756C115.97 10.1686 116.271 9.88379 116.658 9.67871C117.05 9.47363 117.488 9.37109 117.971 9.37109C119.142 9.37109 119.908 9.79492 120.268 10.6426H120.322C120.546 10.2507 120.869 9.94076 121.293 9.71289C121.717 9.48503 122.2 9.37109 122.742 9.37109C123.59 9.37109 124.223 9.58984 124.643 10.0273C125.066 10.4603 125.278 11.1553 125.278 12.1123V17H124.144ZM136.359 15.9951H136.298C135.774 16.7562 134.99 17.1367 133.946 17.1367C132.966 17.1367 132.203 16.8018 131.656 16.1318C131.114 15.4619 130.843 14.5094 130.843 13.2744C130.843 12.0394 131.116 11.0801 131.663 10.3965C132.21 9.71289 132.971 9.37109 133.946 9.37109C134.963 9.37109 135.742 9.74023 136.284 10.4785H136.373L136.325 9.93848L136.298 9.41211V6.36328H137.433V17H136.51L136.359 15.9951ZM134.09 16.1865C134.865 16.1865 135.425 15.9769 135.771 15.5576C136.122 15.1338 136.298 14.4525 136.298 13.5137V13.2744C136.298 12.2126 136.12 11.4561 135.765 11.0049C135.414 10.5492 134.851 10.3213 134.076 10.3213C133.411 10.3213 132.9 10.5811 132.545 11.1006C132.194 11.6156 132.019 12.3447 132.019 13.2881C132.019 14.2451 132.194 14.9674 132.545 15.4551C132.896 15.9427 133.411 16.1865 134.09 16.1865ZM146.312 13.2471C146.312 14.4684 146.005 15.4232 145.39 16.1113C144.774 16.7949 143.924 17.1367 142.84 17.1367C142.17 17.1367 141.575 16.9795 141.056 16.665C140.536 16.3506 140.135 15.8994 139.853 15.3115C139.57 14.7236 139.429 14.0355 139.429 13.2471C139.429 12.0257 139.734 11.0755 140.345 10.3965C140.955 9.71289 141.803 9.37109 142.888 9.37109C143.936 9.37109 144.768 9.71973 145.383 10.417C146.003 11.1143 146.312 12.0576 146.312 13.2471ZM140.604 13.2471C140.604 14.2041 140.796 14.9333 141.179 15.4346C141.562 15.9359 142.124 16.1865 142.867 16.1865C143.61 16.1865 144.173 15.9382 144.556 15.4414C144.943 14.9401 145.137 14.2087 145.137 13.2471C145.137 12.2946 144.943 11.5723 144.556 11.0801C144.173 10.5833 143.605 10.335 142.854 10.335C142.111 10.335 141.55 10.5788 141.172 11.0664C140.794 11.554 140.604 12.2809 140.604 13.2471ZM149.443 17H148.309V6.36328H149.443V17ZM158.316 13.2471C158.316 14.4684 158.009 15.4232 157.394 16.1113C156.778 16.7949 155.928 17.1367 154.844 17.1367C154.174 17.1367 153.579 16.9795 153.06 16.665C152.54 16.3506 152.139 15.8994 151.856 15.3115C151.574 14.7236 151.433 14.0355 151.433 13.2471C151.433 12.0257 151.738 11.0755 152.349 10.3965C152.959 9.71289 153.807 9.37109 154.892 9.37109C155.94 9.37109 156.771 9.71973 157.387 10.417C158.007 11.1143 158.316 12.0576 158.316 13.2471ZM152.608 13.2471C152.608 14.2041 152.8 14.9333 153.183 15.4346C153.565 15.9359 154.128 16.1865 154.871 16.1865C155.614 16.1865 156.177 15.9382 156.56 15.4414C156.947 14.9401 157.141 14.2087 157.141 13.2471C157.141 12.2946 156.947 11.5723 156.56 11.0801C156.177 10.5833 155.609 10.335 154.857 10.335C154.115 10.335 153.554 10.5788 153.176 11.0664C152.798 11.554 152.608 12.2809 152.608 13.2471ZM163.73 9.37109C164.063 9.37109 164.362 9.39844 164.626 9.45312L164.469 10.5059C164.159 10.4375 163.885 10.4033 163.648 10.4033C163.042 10.4033 162.523 10.6494 162.09 11.1416C161.661 11.6338 161.447 12.2467 161.447 12.9805V17H160.312V9.50781H161.249L161.379 10.8955H161.434C161.712 10.4079 162.047 10.0319 162.438 9.76758C162.83 9.50326 163.261 9.37109 163.73 9.37109ZM174.497 14.9561C174.497 15.6533 174.237 16.1911 173.718 16.5693C173.198 16.9476 172.469 17.1367 171.53 17.1367C170.537 17.1367 169.762 16.9795 169.206 16.665V15.6123C169.566 15.7946 169.951 15.9382 170.361 16.043C170.776 16.1478 171.175 16.2002 171.558 16.2002C172.15 16.2002 172.606 16.1068 172.925 15.9199C173.244 15.7285 173.403 15.4391 173.403 15.0518C173.403 14.7601 173.276 14.5117 173.021 14.3066C172.77 14.097 172.278 13.8509 171.544 13.5684C170.847 13.3086 170.35 13.083 170.054 12.8916C169.762 12.6956 169.543 12.4746 169.397 12.2285C169.256 11.9824 169.186 11.6885 169.186 11.3467C169.186 10.736 169.434 10.2552 169.931 9.9043C170.427 9.54883 171.109 9.37109 171.975 9.37109C172.781 9.37109 173.57 9.53516 174.34 9.86328L173.937 10.7861C173.185 10.4762 172.503 10.3213 171.893 10.3213C171.355 10.3213 170.949 10.4056 170.676 10.5742C170.402 10.7428 170.266 10.9753 170.266 11.2715C170.266 11.472 170.316 11.6429 170.416 11.7842C170.521 11.9255 170.687 12.0599 170.915 12.1875C171.143 12.3151 171.58 12.4997 172.228 12.7412C173.116 13.0648 173.715 13.3906 174.025 13.7188C174.34 14.0469 174.497 14.4593 174.497 14.9561ZM177.484 17H176.35V9.50781H177.484V17ZM176.254 7.47754C176.254 7.21777 176.318 7.02865 176.445 6.91016C176.573 6.78711 176.732 6.72559 176.924 6.72559C177.106 6.72559 177.263 6.78711 177.396 6.91016C177.528 7.0332 177.594 7.22233 177.594 7.47754C177.594 7.73275 177.528 7.92415 177.396 8.05176C177.263 8.1748 177.106 8.23633 176.924 8.23633C176.732 8.23633 176.573 8.1748 176.445 8.05176C176.318 7.92415 176.254 7.73275 176.254 7.47754ZM182.311 16.2002C182.511 16.2002 182.705 16.1865 182.892 16.1592C183.078 16.1273 183.227 16.0954 183.336 16.0635V16.9316C183.213 16.9909 183.031 17.0387 182.789 17.0752C182.552 17.1162 182.338 17.1367 182.146 17.1367C180.697 17.1367 179.973 16.3734 179.973 14.8467V10.3896H178.899V9.84277L179.973 9.37109L180.451 7.77148H181.107V9.50781H183.281V10.3896H181.107V14.7988C181.107 15.25 181.215 15.5964 181.429 15.8379C181.643 16.0794 181.937 16.2002 182.311 16.2002ZM193.084 17L192.858 15.9336H192.804C192.43 16.403 192.056 16.722 191.683 16.8906C191.313 17.0547 190.851 17.1367 190.295 17.1367C189.552 17.1367 188.969 16.9453 188.545 16.5625C188.126 16.1797 187.916 15.6351 187.916 14.9287C187.916 13.4157 189.126 12.6227 191.546 12.5498L192.817 12.5088V12.0439C192.817 11.4561 192.69 11.0231 192.435 10.7451C192.184 10.4626 191.781 10.3213 191.225 10.3213C190.6 10.3213 189.894 10.5127 189.105 10.8955L188.757 10.0273C189.126 9.82682 189.529 9.6696 189.967 9.55566C190.409 9.44173 190.851 9.38477 191.293 9.38477C192.186 9.38477 192.847 9.58301 193.275 9.97949C193.708 10.376 193.925 11.0117 193.925 11.8867V17H193.084ZM190.521 16.2002C191.227 16.2002 191.781 16.0065 192.182 15.6191C192.587 15.2318 192.79 14.6895 192.79 13.9922V13.3154L191.655 13.3633C190.753 13.3952 190.101 13.5365 189.7 13.7871C189.304 14.0332 189.105 14.4183 189.105 14.9424C189.105 15.3525 189.229 15.6647 189.475 15.8789C189.725 16.0931 190.074 16.2002 190.521 16.2002ZM205.819 17V12.126C205.819 11.529 205.692 11.0824 205.437 10.7861C205.181 10.4854 204.785 10.335 204.247 10.335C203.541 10.335 203.019 10.5378 202.682 10.9434C202.344 11.349 202.176 11.9733 202.176 12.8164V17H201.041V12.126C201.041 11.529 200.913 11.0824 200.658 10.7861C200.403 10.4854 200.004 10.335 199.462 10.335C198.751 10.335 198.229 10.5492 197.896 10.9775C197.568 11.4014 197.404 12.0986 197.404 13.0693V17H196.27V9.50781H197.192L197.377 10.5332H197.432C197.646 10.1686 197.947 9.88379 198.334 9.67871C198.726 9.47363 199.163 9.37109 199.646 9.37109C200.818 9.37109 201.583 9.79492 201.943 10.6426H201.998C202.221 10.2507 202.545 9.94076 202.969 9.71289C203.393 9.48503 203.876 9.37109 204.418 9.37109C205.266 9.37109 205.899 9.58984 206.318 10.0273C206.742 10.4603 206.954 11.1553 206.954 12.1123V17H205.819ZM212.464 17.1367C211.356 17.1367 210.481 16.7995 209.839 16.125C209.201 15.4505 208.882 14.514 208.882 13.3154C208.882 12.1077 209.178 11.1484 209.771 10.4375C210.368 9.72656 211.167 9.37109 212.17 9.37109C213.109 9.37109 213.852 9.68099 214.398 10.3008C214.945 10.916 215.219 11.7295 215.219 12.7412V13.459H210.058C210.08 14.3385 210.301 15.0062 210.721 15.4619C211.145 15.9176 211.739 16.1455 212.505 16.1455C213.312 16.1455 214.109 15.9769 214.897 15.6396V16.6514C214.496 16.8245 214.116 16.9476 213.756 17.0205C213.4 17.098 212.97 17.1367 212.464 17.1367ZM212.156 10.3213C211.555 10.3213 211.074 10.5173 210.714 10.9092C210.358 11.3011 210.149 11.8434 210.085 12.5361H214.002C214.002 11.8206 213.842 11.2738 213.523 10.8955C213.204 10.5127 212.749 10.3213 212.156 10.3213ZM219.58 16.2002C219.781 16.2002 219.974 16.1865 220.161 16.1592C220.348 16.1273 220.496 16.0954 220.605 16.0635V16.9316C220.482 16.9909 220.3 17.0387 220.059 17.0752C219.822 17.1162 219.607 17.1367 219.416 17.1367C217.967 17.1367 217.242 16.3734 217.242 14.8467V10.3896H216.169V9.84277L217.242 9.37109L217.721 7.77148H218.377V9.50781H220.551V10.3896H218.377V14.7988C218.377 15.25 218.484 15.5964 218.698 15.8379C218.912 16.0794 219.206 16.2002 219.58 16.2002ZM223.299 15.373L223.401 15.5303C223.283 15.986 223.112 16.5146 222.889 17.1162C222.665 17.7223 222.433 18.2852 222.191 18.8047H221.337C221.46 18.3307 221.594 17.7451 221.74 17.0479C221.891 16.3506 221.995 15.7923 222.055 15.373H223.299ZM232.172 17.1367C231.087 17.1367 230.246 16.804 229.649 16.1387C229.057 15.4688 228.761 14.5231 228.761 13.3018C228.761 12.0485 229.062 11.0801 229.663 10.3965C230.269 9.71289 231.131 9.37109 232.247 9.37109C232.607 9.37109 232.967 9.40983 233.327 9.4873C233.687 9.56478 233.97 9.65592 234.175 9.76074L233.826 10.7246C233.576 10.6243 233.302 10.5423 233.006 10.4785C232.71 10.4102 232.448 10.376 232.22 10.376C230.698 10.376 229.937 11.3467 229.937 13.2881C229.937 14.2087 230.121 14.915 230.49 15.4072C230.864 15.8994 231.415 16.1455 232.145 16.1455C232.769 16.1455 233.409 16.0111 234.065 15.7422V16.7471C233.564 17.0068 232.933 17.1367 232.172 17.1367ZM242.316 13.2471C242.316 14.4684 242.009 15.4232 241.394 16.1113C240.778 16.7949 239.928 17.1367 238.844 17.1367C238.174 17.1367 237.579 16.9795 237.06 16.665C236.54 16.3506 236.139 15.8994 235.856 15.3115C235.574 14.7236 235.433 14.0355 235.433 13.2471C235.433 12.0257 235.738 11.0755 236.349 10.3965C236.959 9.71289 237.807 9.37109 238.892 9.37109C239.94 9.37109 240.771 9.71973 241.387 10.417C242.007 11.1143 242.316 12.0576 242.316 13.2471ZM236.608 13.2471C236.608 14.2041 236.8 14.9333 237.183 15.4346C237.565 15.9359 238.128 16.1865 238.871 16.1865C239.614 16.1865 240.177 15.9382 240.56 15.4414C240.947 14.9401 241.141 14.2087 241.141 13.2471C241.141 12.2946 240.947 11.5723 240.56 11.0801C240.177 10.5833 239.609 10.335 238.857 10.335C238.115 10.335 237.554 10.5788 237.176 11.0664C236.798 11.554 236.608 12.2809 236.608 13.2471ZM249.439 17V12.1533C249.439 11.5426 249.3 11.0869 249.022 10.7861C248.744 10.4854 248.309 10.335 247.717 10.335C246.933 10.335 246.359 10.5469 245.994 10.9707C245.63 11.3945 245.447 12.0941 245.447 13.0693V17H244.312V9.50781H245.235L245.42 10.5332H245.475C245.707 10.1641 246.033 9.87923 246.452 9.67871C246.871 9.47363 247.339 9.37109 247.854 9.37109C248.756 9.37109 249.435 9.58984 249.891 10.0273C250.346 10.4603 250.574 11.1553 250.574 12.1123V17H249.439ZM257.745 14.9561C257.745 15.6533 257.485 16.1911 256.966 16.5693C256.446 16.9476 255.717 17.1367 254.778 17.1367C253.785 17.1367 253.01 16.9795 252.454 16.665V15.6123C252.814 15.7946 253.199 15.9382 253.609 16.043C254.024 16.1478 254.423 16.2002 254.806 16.2002C255.398 16.2002 255.854 16.1068 256.173 15.9199C256.492 15.7285 256.651 15.4391 256.651 15.0518C256.651 14.7601 256.524 14.5117 256.269 14.3066C256.018 14.097 255.526 13.8509 254.792 13.5684C254.095 13.3086 253.598 13.083 253.302 12.8916C253.01 12.6956 252.791 12.4746 252.646 12.2285C252.504 11.9824 252.434 11.6885 252.434 11.3467C252.434 10.736 252.682 10.2552 253.179 9.9043C253.675 9.54883 254.357 9.37109 255.223 9.37109C256.029 9.37109 256.818 9.53516 257.588 9.86328L257.185 10.7861C256.433 10.4762 255.751 10.3213 255.141 10.3213C254.603 10.3213 254.197 10.4056 253.924 10.5742C253.65 10.7428 253.514 10.9753 253.514 11.2715C253.514 11.472 253.564 11.6429 253.664 11.7842C253.769 11.9255 253.935 12.0599 254.163 12.1875C254.391 12.3151 254.828 12.4997 255.476 12.7412C256.364 13.0648 256.964 13.3906 257.273 13.7188C257.588 14.0469 257.745 14.4593 257.745 14.9561ZM262.763 17.1367C261.655 17.1367 260.78 16.7995 260.138 16.125C259.5 15.4505 259.181 14.514 259.181 13.3154C259.181 12.1077 259.477 11.1484 260.069 10.4375C260.666 9.72656 261.466 9.37109 262.469 9.37109C263.408 9.37109 264.15 9.68099 264.697 10.3008C265.244 10.916 265.518 11.7295 265.518 12.7412V13.459H260.356C260.379 14.3385 260.6 15.0062 261.02 15.4619C261.443 15.9176 262.038 16.1455 262.804 16.1455C263.61 16.1455 264.408 15.9769 265.196 15.6396V16.6514C264.795 16.8245 264.415 16.9476 264.055 17.0205C263.699 17.098 263.269 17.1367 262.763 17.1367ZM262.455 10.3213C261.854 10.3213 261.373 10.5173 261.013 10.9092C260.657 11.3011 260.448 11.8434 260.384 12.5361H264.301C264.301 11.8206 264.141 11.2738 263.822 10.8955C263.503 10.5127 263.048 10.3213 262.455 10.3213ZM270.453 17.1367C269.368 17.1367 268.528 16.804 267.931 16.1387C267.338 15.4688 267.042 14.5231 267.042 13.3018C267.042 12.0485 267.343 11.0801 267.944 10.3965C268.55 9.71289 269.412 9.37109 270.528 9.37109C270.888 9.37109 271.248 9.40983 271.608 9.4873C271.968 9.56478 272.251 9.65592 272.456 9.76074L272.107 10.7246C271.857 10.6243 271.583 10.5423 271.287 10.4785C270.991 10.4102 270.729 10.376 270.501 10.376C268.979 10.376 268.218 11.3467 268.218 13.2881C268.218 14.2087 268.402 14.915 268.771 15.4072C269.145 15.8994 269.697 16.1455 270.426 16.1455C271.05 16.1455 271.69 16.0111 272.347 15.7422V16.7471C271.845 17.0068 271.214 17.1367 270.453 17.1367ZM276.551 16.2002C276.751 16.2002 276.945 16.1865 277.132 16.1592C277.319 16.1273 277.467 16.0954 277.576 16.0635V16.9316C277.453 16.9909 277.271 17.0387 277.029 17.0752C276.792 17.1162 276.578 17.1367 276.387 17.1367C274.938 17.1367 274.213 16.3734 274.213 14.8467V10.3896H273.14V9.84277L274.213 9.37109L274.691 7.77148H275.348V9.50781H277.521V10.3896H275.348V14.7988C275.348 15.25 275.455 15.5964 275.669 15.8379C275.883 16.0794 276.177 16.2002 276.551 16.2002ZM282.245 17.1367C281.138 17.1367 280.263 16.7995 279.62 16.125C278.982 15.4505 278.663 14.514 278.663 13.3154C278.663 12.1077 278.959 11.1484 279.552 10.4375C280.149 9.72656 280.949 9.37109 281.951 9.37109C282.89 9.37109 283.633 9.68099 284.18 10.3008C284.727 10.916 285 11.7295 285 12.7412V13.459H279.839C279.862 14.3385 280.083 15.0062 280.502 15.4619C280.926 15.9176 281.521 16.1455 282.286 16.1455C283.093 16.1455 283.89 15.9769 284.679 15.6396V16.6514C284.278 16.8245 283.897 16.9476 283.537 17.0205C283.182 17.098 282.751 17.1367 282.245 17.1367ZM281.938 10.3213C281.336 10.3213 280.855 10.5173 280.495 10.9092C280.14 11.3011 279.93 11.8434 279.866 12.5361H283.783C283.783 11.8206 283.624 11.2738 283.305 10.8955C282.986 10.5127 282.53 10.3213 281.938 10.3213ZM289.361 16.2002C289.562 16.2002 289.756 16.1865 289.942 16.1592C290.129 16.1273 290.277 16.0954 290.387 16.0635V16.9316C290.264 16.9909 290.081 17.0387 289.84 17.0752C289.603 17.1162 289.389 17.1367 289.197 17.1367C287.748 17.1367 287.023 16.3734 287.023 14.8467V10.3896H285.95V9.84277L287.023 9.37109L287.502 7.77148H288.158V9.50781H290.332V10.3896H288.158V14.7988C288.158 15.25 288.265 15.5964 288.479 15.8379C288.694 16.0794 288.988 16.2002 289.361 16.2002ZM292.957 9.50781V14.3682C292.957 14.9788 293.096 15.4346 293.374 15.7354C293.652 16.0361 294.087 16.1865 294.68 16.1865C295.464 16.1865 296.035 15.9723 296.396 15.5439C296.76 15.1156 296.942 14.416 296.942 13.4453V9.50781H298.077V17H297.141L296.977 15.9951H296.915C296.683 16.3643 296.359 16.6468 295.944 16.8428C295.534 17.0387 295.065 17.1367 294.536 17.1367C293.625 17.1367 292.941 16.9202 292.485 16.4873C292.034 16.0544 291.809 15.3617 291.809 14.4092V9.50781H292.957ZM303.908 9.37109C304.241 9.37109 304.539 9.39844 304.804 9.45312L304.646 10.5059C304.337 10.4375 304.063 10.4033 303.826 10.4033C303.22 10.4033 302.701 10.6494 302.268 11.1416C301.839 11.6338 301.625 12.2467 301.625 12.9805V17H300.49V9.50781H301.427L301.557 10.8955H301.611C301.889 10.4079 302.224 10.0319 302.616 9.76758C303.008 9.50326 303.439 9.37109 303.908 9.37109ZM314.449 17L314.224 15.9336H314.169C313.795 16.403 313.422 16.722 313.048 16.8906C312.679 17.0547 312.216 17.1367 311.66 17.1367C310.917 17.1367 310.334 16.9453 309.91 16.5625C309.491 16.1797 309.281 15.6351 309.281 14.9287C309.281 13.4157 310.491 12.6227 312.911 12.5498L314.183 12.5088V12.0439C314.183 11.4561 314.055 11.0231 313.8 10.7451C313.549 10.4626 313.146 10.3213 312.59 10.3213C311.965 10.3213 311.259 10.5127 310.471 10.8955L310.122 10.0273C310.491 9.82682 310.895 9.6696 311.332 9.55566C311.774 9.44173 312.216 9.38477 312.658 9.38477C313.551 9.38477 314.212 9.58301 314.641 9.97949C315.074 10.376 315.29 11.0117 315.29 11.8867V17H314.449ZM311.886 16.2002C312.592 16.2002 313.146 16.0065 313.547 15.6191C313.952 15.2318 314.155 14.6895 314.155 13.9922V13.3154L313.021 13.3633C312.118 13.3952 311.466 13.5365 311.065 13.7871C310.669 14.0332 310.471 14.4183 310.471 14.9424C310.471 15.3525 310.594 15.6647 310.84 15.8789C311.09 16.0931 311.439 16.2002 311.886 16.2002ZM322.734 15.9951H322.673C322.149 16.7562 321.365 17.1367 320.321 17.1367C319.341 17.1367 318.578 16.8018 318.031 16.1318C317.489 15.4619 317.218 14.5094 317.218 13.2744C317.218 12.0394 317.491 11.0801 318.038 10.3965C318.585 9.71289 319.346 9.37109 320.321 9.37109C321.338 9.37109 322.117 9.74023 322.659 10.4785H322.748L322.7 9.93848L322.673 9.41211V6.36328H323.808V17H322.885L322.734 15.9951ZM320.465 16.1865C321.24 16.1865 321.8 15.9769 322.146 15.5576C322.497 15.1338 322.673 14.4525 322.673 13.5137V13.2744C322.673 12.2126 322.495 11.4561 322.14 11.0049C321.789 10.5492 321.226 10.3213 320.451 10.3213C319.786 10.3213 319.275 10.5811 318.92 11.1006C318.569 11.6156 318.394 12.3447 318.394 13.2881C318.394 14.2451 318.569 14.9674 318.92 15.4551C319.271 15.9427 319.786 16.1865 320.465 16.1865ZM327.355 17H326.221V9.50781H327.355V17ZM326.125 7.47754C326.125 7.21777 326.189 7.02865 326.316 6.91016C326.444 6.78711 326.604 6.72559 326.795 6.72559C326.977 6.72559 327.134 6.78711 327.267 6.91016C327.399 7.0332 327.465 7.22233 327.465 7.47754C327.465 7.73275 327.399 7.92415 327.267 8.05176C327.134 8.1748 326.977 8.23633 326.795 8.23633C326.604 8.23633 326.444 8.1748 326.316 8.05176C326.189 7.92415 326.125 7.73275 326.125 7.47754ZM333.248 17.1367C332.76 17.1367 332.314 17.0479 331.908 16.8701C331.507 16.6878 331.17 16.4098 330.896 16.0361H330.814C330.869 16.4736 330.896 16.8883 330.896 17.2803V20.3633H329.762V9.50781H330.685L330.842 10.5332H330.896C331.188 10.123 331.528 9.82682 331.915 9.64453C332.302 9.46224 332.747 9.37109 333.248 9.37109C334.242 9.37109 335.007 9.71061 335.545 10.3896C336.087 11.0687 336.358 12.0212 336.358 13.2471C336.358 14.4775 336.083 15.4346 335.531 16.1182C334.984 16.7972 334.223 17.1367 333.248 17.1367ZM333.084 10.335C332.318 10.335 331.765 10.5469 331.423 10.9707C331.081 11.3945 330.906 12.069 330.896 12.9941V13.2471C330.896 14.2998 331.072 15.054 331.423 15.5098C331.774 15.9609 332.337 16.1865 333.111 16.1865C333.758 16.1865 334.264 15.9245 334.629 15.4004C334.998 14.8763 335.183 14.154 335.183 13.2334C335.183 12.2992 334.998 11.5837 334.629 11.0869C334.264 10.5856 333.749 10.335 333.084 10.335ZM339.482 17H338.348V9.50781H339.482V17ZM338.252 7.47754C338.252 7.21777 338.316 7.02865 338.443 6.91016C338.571 6.78711 338.73 6.72559 338.922 6.72559C339.104 6.72559 339.261 6.78711 339.394 6.91016C339.526 7.0332 339.592 7.22233 339.592 7.47754C339.592 7.73275 339.526 7.92415 339.394 8.05176C339.261 8.1748 339.104 8.23633 338.922 8.23633C338.73 8.23633 338.571 8.1748 338.443 8.05176C338.316 7.92415 338.252 7.73275 338.252 7.47754ZM346.722 14.9561C346.722 15.6533 346.462 16.1911 345.942 16.5693C345.423 16.9476 344.694 17.1367 343.755 17.1367C342.761 17.1367 341.987 16.9795 341.431 16.665V15.6123C341.791 15.7946 342.176 15.9382 342.586 16.043C343.001 16.1478 343.399 16.2002 343.782 16.2002C344.375 16.2002 344.83 16.1068 345.149 15.9199C345.468 15.7285 345.628 15.4391 345.628 15.0518C345.628 14.7601 345.5 14.5117 345.245 14.3066C344.994 14.097 344.502 13.8509 343.769 13.5684C343.071 13.3086 342.575 13.083 342.278 12.8916C341.987 12.6956 341.768 12.4746 341.622 12.2285C341.481 11.9824 341.41 11.6885 341.41 11.3467C341.41 10.736 341.659 10.2552 342.155 9.9043C342.652 9.54883 343.333 9.37109 344.199 9.37109C345.006 9.37109 345.794 9.53516 346.564 9.86328L346.161 10.7861C345.409 10.4762 344.728 10.3213 344.117 10.3213C343.579 10.3213 343.174 10.4056 342.9 10.5742C342.627 10.7428 342.49 10.9753 342.49 11.2715C342.49 11.472 342.54 11.6429 342.641 11.7842C342.745 11.9255 342.912 12.0599 343.14 12.1875C343.368 12.3151 343.805 12.4997 344.452 12.7412C345.341 13.0648 345.94 13.3906 346.25 13.7188C346.564 14.0469 346.722 14.4593 346.722 14.9561ZM351.568 17.1367C350.484 17.1367 349.643 16.804 349.046 16.1387C348.453 15.4688 348.157 14.5231 348.157 13.3018C348.157 12.0485 348.458 11.0801 349.06 10.3965C349.666 9.71289 350.527 9.37109 351.644 9.37109C352.004 9.37109 352.364 9.40983 352.724 9.4873C353.084 9.56478 353.366 9.65592 353.571 9.76074L353.223 10.7246C352.972 10.6243 352.699 10.5423 352.402 10.4785C352.106 10.4102 351.844 10.376 351.616 10.376C350.094 10.376 349.333 11.3467 349.333 13.2881C349.333 14.2087 349.518 14.915 349.887 15.4072C350.26 15.8994 350.812 16.1455 351.541 16.1455C352.165 16.1455 352.806 16.0111 353.462 15.7422V16.7471C352.961 17.0068 352.329 17.1367 351.568 17.1367ZM356.381 17H355.246V9.50781H356.381V17ZM355.15 7.47754C355.15 7.21777 355.214 7.02865 355.342 6.91016C355.469 6.78711 355.629 6.72559 355.82 6.72559C356.003 6.72559 356.16 6.78711 356.292 6.91016C356.424 7.0332 356.49 7.22233 356.49 7.47754C356.49 7.73275 356.424 7.92415 356.292 8.05176C356.16 8.1748 356.003 8.23633 355.82 8.23633C355.629 8.23633 355.469 8.1748 355.342 8.05176C355.214 7.92415 355.15 7.73275 355.15 7.47754ZM363.914 17V12.1533C363.914 11.5426 363.775 11.0869 363.497 10.7861C363.219 10.4854 362.784 10.335 362.191 10.335C361.408 10.335 360.833 10.5469 360.469 10.9707C360.104 11.3945 359.922 12.0941 359.922 13.0693V17H358.787V9.50781H359.71L359.895 10.5332H359.949C360.182 10.1641 360.507 9.87923 360.927 9.67871C361.346 9.47363 361.813 9.37109 362.328 9.37109C363.23 9.37109 363.91 9.58984 364.365 10.0273C364.821 10.4603 365.049 11.1553 365.049 12.1123V17H363.914ZM373.519 9.50781V10.2256L372.131 10.3896C372.258 10.5492 372.372 10.7588 372.473 11.0186C372.573 11.2738 372.623 11.5632 372.623 11.8867C372.623 12.6204 372.372 13.2061 371.871 13.6436C371.37 14.0811 370.682 14.2998 369.807 14.2998C369.583 14.2998 369.374 14.2816 369.178 14.2451C368.695 14.5003 368.453 14.8216 368.453 15.209C368.453 15.4141 368.537 15.5667 368.706 15.667C368.875 15.7627 369.164 15.8105 369.574 15.8105H370.9C371.712 15.8105 372.334 15.9814 372.767 16.3232C373.204 16.665 373.423 17.1618 373.423 17.8135C373.423 18.6429 373.09 19.2741 372.425 19.707C371.759 20.1445 370.789 20.3633 369.513 20.3633C368.533 20.3633 367.776 20.181 367.243 19.8164C366.715 19.4518 366.45 18.9368 366.45 18.2715C366.45 17.8158 366.596 17.4215 366.888 17.0889C367.179 16.7562 367.59 16.5306 368.118 16.4121C367.927 16.3255 367.765 16.1911 367.633 16.0088C367.505 15.8265 367.441 15.6146 367.441 15.373C367.441 15.0996 367.514 14.8604 367.66 14.6553C367.806 14.4502 368.036 14.252 368.351 14.0605C367.963 13.901 367.646 13.6299 367.4 13.2471C367.159 12.8643 367.038 12.4268 367.038 11.9346C367.038 11.1143 367.284 10.4831 367.776 10.041C368.269 9.5944 368.966 9.37109 369.868 9.37109C370.26 9.37109 370.613 9.41667 370.928 9.50781H373.519ZM367.544 18.2578C367.544 18.6634 367.715 18.971 368.057 19.1807C368.398 19.3903 368.888 19.4951 369.526 19.4951C370.479 19.4951 371.183 19.3516 371.639 19.0645C372.099 18.7819 372.329 18.3968 372.329 17.9092C372.329 17.5036 372.204 17.221 371.953 17.0615C371.702 16.9066 371.231 16.8291 370.538 16.8291H369.178C368.663 16.8291 368.262 16.9521 367.975 17.1982C367.688 17.4443 367.544 17.7975 367.544 18.2578ZM368.159 11.9072C368.159 12.4313 368.307 12.8278 368.604 13.0967C368.9 13.3656 369.312 13.5 369.841 13.5C370.948 13.5 371.502 12.9622 371.502 11.8867C371.502 10.7611 370.941 10.1982 369.82 10.1982C369.287 10.1982 368.877 10.3418 368.59 10.6289C368.303 10.916 368.159 11.3421 368.159 11.9072ZM44.3682 41.1367C43.2607 41.1367 42.3857 40.7995 41.7432 40.125C41.1051 39.4505 40.7861 38.514 40.7861 37.3154C40.7861 36.1077 41.0824 35.1484 41.6748 34.4375C42.2718 33.7266 43.0716 33.3711 44.0742 33.3711C45.013 33.3711 45.7559 33.681 46.3027 34.3008C46.8496 34.916 47.123 35.7295 47.123 36.7412V37.459H41.9619C41.9847 38.3385 42.2057 39.0062 42.625 39.4619C43.0488 39.9176 43.6436 40.1455 44.4092 40.1455C45.2158 40.1455 46.0133 39.9769 46.8018 39.6396V40.6514C46.4007 40.8245 46.0202 40.9476 45.6602 41.0205C45.3047 41.098 44.874 41.1367 44.3682 41.1367ZM44.0605 34.3213C43.459 34.3213 42.9782 34.5173 42.6182 34.9092C42.2627 35.3011 42.0531 35.8434 41.9893 36.5361H45.9062C45.9062 35.8206 45.7467 35.2738 45.4277 34.8955C45.1087 34.5127 44.653 34.3213 44.0605 34.3213ZM50.1992 41H49.0645V30.3633H50.1992V41ZM53.7402 41H52.6055V33.5078H53.7402V41ZM52.5098 31.4775C52.5098 31.2178 52.5736 31.0286 52.7012 30.9102C52.8288 30.7871 52.9883 30.7256 53.1797 30.7256C53.362 30.7256 53.5192 30.7871 53.6514 30.9102C53.7835 31.0332 53.8496 31.2223 53.8496 31.4775C53.8496 31.7327 53.7835 31.9242 53.6514 32.0518C53.5192 32.1748 53.362 32.2363 53.1797 32.2363C52.9883 32.2363 52.8288 32.1748 52.7012 32.0518C52.5736 31.9242 52.5098 31.7327 52.5098 31.4775ZM58.5664 40.2002C58.7669 40.2002 58.9606 40.1865 59.1475 40.1592C59.3343 40.1273 59.4824 40.0954 59.5918 40.0635V40.9316C59.4688 40.9909 59.2865 41.0387 59.0449 41.0752C58.8079 41.1162 58.5938 41.1367 58.4023 41.1367C56.9531 41.1367 56.2285 40.3734 56.2285 38.8467V34.3896H55.1553V33.8428L56.2285 33.3711L56.707 31.7715H57.3633V33.5078H59.5371V34.3896H57.3633V38.7988C57.3633 39.25 57.4704 39.5964 57.6846 39.8379C57.8988 40.0794 58.1927 40.2002 58.5664 40.2002ZM62.2852 39.373L62.3877 39.5303C62.2692 39.986 62.0983 40.5146 61.875 41.1162C61.6517 41.7223 61.4193 42.2852 61.1777 42.8047H60.3232C60.4463 42.3307 60.5807 41.7451 60.7266 41.0479C60.877 40.3506 60.9818 39.7923 61.041 39.373H62.2852ZM72.9971 38.9561C72.9971 39.6533 72.7373 40.1911 72.2178 40.5693C71.6982 40.9476 70.9691 41.1367 70.0303 41.1367C69.0368 41.1367 68.262 40.9795 67.7061 40.665V39.6123C68.0661 39.7946 68.4512 39.9382 68.8613 40.043C69.276 40.1478 69.6748 40.2002 70.0576 40.2002C70.6501 40.2002 71.1058 40.1068 71.4248 39.9199C71.7438 39.7285 71.9033 39.4391 71.9033 39.0518C71.9033 38.7601 71.7757 38.5117 71.5205 38.3066C71.2699 38.097 70.7777 37.8509 70.0439 37.5684C69.3467 37.3086 68.8499 37.083 68.5537 36.8916C68.262 36.6956 68.0433 36.4746 67.8975 36.2285C67.7562 35.9824 67.6855 35.6885 67.6855 35.3467C67.6855 34.736 67.9339 34.2552 68.4307 33.9043C68.9274 33.5488 69.6087 33.3711 70.4746 33.3711C71.2812 33.3711 72.0697 33.5352 72.8398 33.8633L72.4365 34.7861C71.6846 34.4762 71.0033 34.3213 70.3926 34.3213C69.8548 34.3213 69.4492 34.4056 69.1758 34.5742C68.9023 34.7428 68.7656 34.9753 68.7656 35.2715C68.7656 35.472 68.8158 35.6429 68.916 35.7842C69.0208 35.9255 69.1872 36.0599 69.415 36.1875C69.6429 36.3151 70.0804 36.4997 70.7275 36.7412C71.6162 37.0648 72.2155 37.3906 72.5254 37.7188C72.8398 38.0469 72.9971 38.4593 72.9971 38.9561ZM78.0146 41.1367C76.9072 41.1367 76.0322 40.7995 75.3896 40.125C74.7516 39.4505 74.4326 38.514 74.4326 37.3154C74.4326 36.1077 74.7288 35.1484 75.3213 34.4375C75.9183 33.7266 76.7181 33.3711 77.7207 33.3711C78.6595 33.3711 79.4023 33.681 79.9492 34.3008C80.4961 34.916 80.7695 35.7295 80.7695 36.7412V37.459H75.6084C75.6312 38.3385 75.8522 39.0062 76.2715 39.4619C76.6953 39.9176 77.29 40.1455 78.0557 40.1455C78.8623 40.1455 79.6598 39.9769 80.4482 39.6396V40.6514C80.0472 40.8245 79.6667 40.9476 79.3066 41.0205C78.9512 41.098 78.5205 41.1367 78.0146 41.1367ZM77.707 34.3213C77.1055 34.3213 76.6247 34.5173 76.2646 34.9092C75.9092 35.3011 75.6995 35.8434 75.6357 36.5361H79.5527C79.5527 35.8206 79.3932 35.2738 79.0742 34.8955C78.7552 34.5127 78.2995 34.3213 77.707 34.3213ZM87.8105 39.9951H87.749C87.2249 40.7562 86.4411 41.1367 85.3975 41.1367C84.4176 41.1367 83.6543 40.8018 83.1074 40.1318C82.5651 39.4619 82.2939 38.5094 82.2939 37.2744C82.2939 36.0394 82.5674 35.0801 83.1143 34.3965C83.6611 33.7129 84.4222 33.3711 85.3975 33.3711C86.4137 33.3711 87.193 33.7402 87.7354 34.4785H87.8242L87.7764 33.9385L87.749 33.4121V30.3633H88.8838V41H87.9609L87.8105 39.9951ZM85.541 40.1865C86.3158 40.1865 86.8763 39.9769 87.2227 39.5576C87.5736 39.1338 87.749 38.4525 87.749 37.5137V37.2744C87.749 36.2126 87.5713 35.4561 87.2158 35.0049C86.8649 34.5492 86.3021 34.3213 85.5273 34.3213C84.862 34.3213 84.3516 34.5811 83.9961 35.1006C83.6452 35.6156 83.4697 36.3447 83.4697 37.2881C83.4697 38.2451 83.6452 38.9674 83.9961 39.4551C84.347 39.9427 84.862 40.1865 85.541 40.1865ZM100.033 39.9951H99.9717C99.4476 40.7562 98.6637 41.1367 97.6201 41.1367C96.6403 41.1367 95.877 40.8018 95.3301 40.1318C94.7878 39.4619 94.5166 38.5094 94.5166 37.2744C94.5166 36.0394 94.79 35.0801 95.3369 34.3965C95.8838 33.7129 96.6449 33.3711 97.6201 33.3711C98.6364 33.3711 99.4157 33.7402 99.958 34.4785H100.047L99.999 33.9385L99.9717 33.4121V30.3633H101.106V41H100.184L100.033 39.9951ZM97.7637 40.1865C98.5384 40.1865 99.099 39.9769 99.4453 39.5576C99.7962 39.1338 99.9717 38.4525 99.9717 37.5137V37.2744C99.9717 36.2126 99.7939 35.4561 99.4385 35.0049C99.0876 34.5492 98.5247 34.3213 97.75 34.3213C97.0846 34.3213 96.5742 34.5811 96.2188 35.1006C95.8678 35.6156 95.6924 36.3447 95.6924 37.2881C95.6924 38.2451 95.8678 38.9674 96.2188 39.4551C96.5697 39.9427 97.0846 40.1865 97.7637 40.1865ZM109.986 37.2471C109.986 38.4684 109.679 39.4232 109.063 40.1113C108.448 40.7949 107.598 41.1367 106.514 41.1367C105.844 41.1367 105.249 40.9795 104.729 40.665C104.21 40.3506 103.809 39.8994 103.526 39.3115C103.244 38.7236 103.103 38.0355 103.103 37.2471C103.103 36.0257 103.408 35.0755 104.019 34.3965C104.629 33.7129 105.477 33.3711 106.562 33.3711C107.61 33.3711 108.441 33.7197 109.057 34.417C109.676 35.1143 109.986 36.0576 109.986 37.2471ZM104.278 37.2471C104.278 38.2041 104.47 38.9333 104.853 39.4346C105.235 39.9359 105.798 40.1865 106.541 40.1865C107.284 40.1865 107.847 39.9382 108.229 39.4414C108.617 38.9401 108.811 38.2087 108.811 37.2471C108.811 36.2946 108.617 35.5723 108.229 35.0801C107.847 34.5833 107.279 34.335 106.527 34.335C105.785 34.335 105.224 34.5788 104.846 35.0664C104.467 35.554 104.278 36.2809 104.278 37.2471ZM118.784 41.1367C117.677 41.1367 116.802 40.7995 116.159 40.125C115.521 39.4505 115.202 38.514 115.202 37.3154C115.202 36.1077 115.498 35.1484 116.091 34.4375C116.688 33.7266 117.488 33.3711 118.49 33.3711C119.429 33.3711 120.172 33.681 120.719 34.3008C121.266 34.916 121.539 35.7295 121.539 36.7412V37.459H116.378C116.401 38.3385 116.622 39.0062 117.041 39.4619C117.465 39.9176 118.06 40.1455 118.825 40.1455C119.632 40.1455 120.429 39.9769 121.218 39.6396V40.6514C120.817 40.8245 120.436 40.9476 120.076 41.0205C119.721 41.098 119.29 41.1367 118.784 41.1367ZM118.477 34.3213C117.875 34.3213 117.394 34.5173 117.034 34.9092C116.679 35.3011 116.469 35.8434 116.405 36.5361H120.322C120.322 35.8206 120.163 35.2738 119.844 34.8955C119.525 34.5127 119.069 34.3213 118.477 34.3213ZM124.615 41H123.48V33.5078H124.615V41ZM123.385 31.4775C123.385 31.2178 123.449 31.0286 123.576 30.9102C123.704 30.7871 123.863 30.7256 124.055 30.7256C124.237 30.7256 124.394 30.7871 124.526 30.9102C124.659 31.0332 124.725 31.2223 124.725 31.4775C124.725 31.7327 124.659 31.9242 124.526 32.0518C124.394 32.1748 124.237 32.2363 124.055 32.2363C123.863 32.2363 123.704 32.1748 123.576 32.0518C123.449 31.9242 123.385 31.7327 123.385 31.4775ZM128.088 33.5078V38.3682C128.088 38.9788 128.227 39.4346 128.505 39.7354C128.783 40.0361 129.218 40.1865 129.811 40.1865C130.594 40.1865 131.166 39.9723 131.526 39.5439C131.891 39.1156 132.073 38.416 132.073 37.4453V33.5078H133.208V41H132.271L132.107 39.9951H132.046C131.813 40.3643 131.49 40.6468 131.075 40.8428C130.665 41.0387 130.196 41.1367 129.667 41.1367C128.756 41.1367 128.072 40.9202 127.616 40.4873C127.165 40.0544 126.939 39.3617 126.939 38.4092V33.5078H128.088ZM140.454 38.9561C140.454 39.6533 140.194 40.1911 139.675 40.5693C139.155 40.9476 138.426 41.1367 137.487 41.1367C136.494 41.1367 135.719 40.9795 135.163 40.665V39.6123C135.523 39.7946 135.908 39.9382 136.318 40.043C136.733 40.1478 137.132 40.2002 137.515 40.2002C138.107 40.2002 138.563 40.1068 138.882 39.9199C139.201 39.7285 139.36 39.4391 139.36 39.0518C139.36 38.7601 139.233 38.5117 138.978 38.3066C138.727 38.097 138.235 37.8509 137.501 37.5684C136.804 37.3086 136.307 37.083 136.011 36.8916C135.719 36.6956 135.5 36.4746 135.354 36.2285C135.213 35.9824 135.143 35.6885 135.143 35.3467C135.143 34.736 135.391 34.2552 135.888 33.9043C136.384 33.5488 137.066 33.3711 137.932 33.3711C138.738 33.3711 139.527 33.5352 140.297 33.8633L139.894 34.7861C139.142 34.4762 138.46 34.3213 137.85 34.3213C137.312 34.3213 136.906 34.4056 136.633 34.5742C136.359 34.7428 136.223 34.9753 136.223 35.2715C136.223 35.472 136.273 35.6429 136.373 35.7842C136.478 35.9255 136.644 36.0599 136.872 36.1875C137.1 36.3151 137.537 36.4997 138.185 36.7412C139.073 37.0648 139.673 37.3906 139.982 37.7188C140.297 38.0469 140.454 38.4593 140.454 38.9561ZM151.856 41V36.126C151.856 35.529 151.729 35.0824 151.474 34.7861C151.218 34.4854 150.822 34.335 150.284 34.335C149.578 34.335 149.056 34.5378 148.719 34.9434C148.382 35.349 148.213 35.9733 148.213 36.8164V41H147.078V36.126C147.078 35.529 146.951 35.0824 146.695 34.7861C146.44 34.4854 146.041 34.335 145.499 34.335C144.788 34.335 144.266 34.5492 143.934 34.9775C143.605 35.4014 143.441 36.0986 143.441 37.0693V41H142.307V33.5078H143.229L143.414 34.5332H143.469C143.683 34.1686 143.984 33.8838 144.371 33.6787C144.763 33.4736 145.201 33.3711 145.684 33.3711C146.855 33.3711 147.62 33.7949 147.98 34.6426H148.035C148.258 34.2507 148.582 33.9408 149.006 33.7129C149.43 33.485 149.913 33.3711 150.455 33.3711C151.303 33.3711 151.936 33.5898 152.355 34.0273C152.779 34.4603 152.991 35.1553 152.991 36.1123V41H151.856ZM161.803 37.2471C161.803 38.4684 161.495 39.4232 160.88 40.1113C160.265 40.7949 159.415 41.1367 158.33 41.1367C157.66 41.1367 157.065 40.9795 156.546 40.665C156.026 40.3506 155.625 39.8994 155.343 39.3115C155.06 38.7236 154.919 38.0355 154.919 37.2471C154.919 36.0257 155.224 35.0755 155.835 34.3965C156.446 33.7129 157.293 33.3711 158.378 33.3711C159.426 33.3711 160.258 33.7197 160.873 34.417C161.493 35.1143 161.803 36.0576 161.803 37.2471ZM156.095 37.2471C156.095 38.2041 156.286 38.9333 156.669 39.4346C157.052 39.9359 157.615 40.1865 158.357 40.1865C159.1 40.1865 159.663 39.9382 160.046 39.4414C160.433 38.9401 160.627 38.2087 160.627 37.2471C160.627 36.2946 160.433 35.5723 160.046 35.0801C159.663 34.5833 159.096 34.335 158.344 34.335C157.601 34.335 157.04 34.5788 156.662 35.0664C156.284 35.554 156.095 36.2809 156.095 37.2471ZM168.898 39.9951H168.837C168.313 40.7562 167.529 41.1367 166.485 41.1367C165.506 41.1367 164.742 40.8018 164.195 40.1318C163.653 39.4619 163.382 38.5094 163.382 37.2744C163.382 36.0394 163.655 35.0801 164.202 34.3965C164.749 33.7129 165.51 33.3711 166.485 33.3711C167.502 33.3711 168.281 33.7402 168.823 34.4785H168.912L168.864 33.9385L168.837 33.4121V30.3633H169.972V41H169.049L168.898 39.9951ZM166.629 40.1865C167.404 40.1865 167.964 39.9769 168.311 39.5576C168.661 39.1338 168.837 38.4525 168.837 37.5137V37.2744C168.837 36.2126 168.659 35.4561 168.304 35.0049C167.953 34.5492 167.39 34.3213 166.615 34.3213C165.95 34.3213 165.439 34.5811 165.084 35.1006C164.733 35.6156 164.558 36.3447 164.558 37.2881C164.558 38.2451 164.733 38.9674 165.084 39.4551C165.435 39.9427 165.95 40.1865 166.629 40.1865ZM178.441 40.2002C178.642 40.2002 178.836 40.1865 179.022 40.1592C179.209 40.1273 179.357 40.0954 179.467 40.0635V40.9316C179.344 40.9909 179.161 41.0387 178.92 41.0752C178.683 41.1162 178.469 41.1367 178.277 41.1367C176.828 41.1367 176.104 40.3734 176.104 38.8467V34.3896H175.03V33.8428L176.104 33.3711L176.582 31.7715H177.238V33.5078H179.412V34.3896H177.238V38.7988C177.238 39.25 177.345 39.5964 177.56 39.8379C177.774 40.0794 178.068 40.2002 178.441 40.2002ZM184.136 41.1367C183.028 41.1367 182.153 40.7995 181.511 40.125C180.873 39.4505 180.554 38.514 180.554 37.3154C180.554 36.1077 180.85 35.1484 181.442 34.4375C182.039 33.7266 182.839 33.3711 183.842 33.3711C184.781 33.3711 185.523 33.681 186.07 34.3008C186.617 34.916 186.891 35.7295 186.891 36.7412V37.459H181.729C181.752 38.3385 181.973 39.0062 182.393 39.4619C182.816 39.9176 183.411 40.1455 184.177 40.1455C184.983 40.1455 185.781 39.9769 186.569 39.6396V40.6514C186.168 40.8245 185.788 40.9476 185.428 41.0205C185.072 41.098 184.642 41.1367 184.136 41.1367ZM183.828 34.3213C183.227 34.3213 182.746 34.5173 182.386 34.9092C182.03 35.3011 181.821 35.8434 181.757 36.5361H185.674C185.674 35.8206 185.514 35.2738 185.195 34.8955C184.876 34.5127 184.421 34.3213 183.828 34.3213ZM198.382 41V36.126C198.382 35.529 198.254 35.0824 197.999 34.7861C197.744 34.4854 197.347 34.335 196.81 34.335C196.103 34.335 195.581 34.5378 195.244 34.9434C194.907 35.349 194.738 35.9733 194.738 36.8164V41H193.604V36.126C193.604 35.529 193.476 35.0824 193.221 34.7861C192.965 34.4854 192.567 34.335 192.024 34.335C191.313 34.335 190.792 34.5492 190.459 34.9775C190.131 35.4014 189.967 36.0986 189.967 37.0693V41H188.832V33.5078H189.755L189.939 34.5332H189.994C190.208 34.1686 190.509 33.8838 190.896 33.6787C191.288 33.4736 191.726 33.3711 192.209 33.3711C193.38 33.3711 194.146 33.7949 194.506 34.6426H194.561C194.784 34.2507 195.107 33.9408 195.531 33.7129C195.955 33.485 196.438 33.3711 196.98 33.3711C197.828 33.3711 198.462 33.5898 198.881 34.0273C199.305 34.4603 199.517 35.1553 199.517 36.1123V41H198.382ZM205.348 41.1367C204.86 41.1367 204.413 41.0479 204.008 40.8701C203.607 40.6878 203.27 40.4098 202.996 40.0361H202.914C202.969 40.4736 202.996 40.8883 202.996 41.2803V44.3633H201.861V33.5078H202.784L202.941 34.5332H202.996C203.288 34.123 203.627 33.8268 204.015 33.6445C204.402 33.4622 204.846 33.3711 205.348 33.3711C206.341 33.3711 207.107 33.7106 207.645 34.3896C208.187 35.0687 208.458 36.0212 208.458 37.2471C208.458 38.4775 208.182 39.4346 207.631 40.1182C207.084 40.7972 206.323 41.1367 205.348 41.1367ZM205.184 34.335C204.418 34.335 203.864 34.5469 203.522 34.9707C203.181 35.3945 203.005 36.069 202.996 36.9941V37.2471C202.996 38.2998 203.172 39.054 203.522 39.5098C203.873 39.9609 204.436 40.1865 205.211 40.1865C205.858 40.1865 206.364 39.9245 206.729 39.4004C207.098 38.8763 207.282 38.154 207.282 37.2334C207.282 36.2992 207.098 35.5837 206.729 35.0869C206.364 34.5856 205.849 34.335 205.184 34.335ZM216.914 37.2471C216.914 38.4684 216.606 39.4232 215.991 40.1113C215.376 40.7949 214.526 41.1367 213.441 41.1367C212.771 41.1367 212.177 40.9795 211.657 40.665C211.138 40.3506 210.737 39.8994 210.454 39.3115C210.172 38.7236 210.03 38.0355 210.03 37.2471C210.03 36.0257 210.336 35.0755 210.946 34.3965C211.557 33.7129 212.405 33.3711 213.489 33.3711C214.537 33.3711 215.369 33.7197 215.984 34.417C216.604 35.1143 216.914 36.0576 216.914 37.2471ZM211.206 37.2471C211.206 38.2041 211.397 38.9333 211.78 39.4346C212.163 39.9359 212.726 40.1865 213.469 40.1865C214.212 40.1865 214.774 39.9382 215.157 39.4414C215.545 38.9401 215.738 38.2087 215.738 37.2471C215.738 36.2946 215.545 35.5723 215.157 35.0801C214.774 34.5833 214.207 34.335 213.455 34.335C212.712 34.335 212.152 34.5788 211.773 35.0664C211.395 35.554 211.206 36.2809 211.206 37.2471ZM222.328 33.3711C222.661 33.3711 222.959 33.3984 223.224 33.4531L223.066 34.5059C222.757 34.4375 222.483 34.4033 222.246 34.4033C221.64 34.4033 221.12 34.6494 220.688 35.1416C220.259 35.6338 220.045 36.2467 220.045 36.9805V41H218.91V33.5078H219.847L219.977 34.8955H220.031C220.309 34.4079 220.644 34.0319 221.036 33.7676C221.428 33.5033 221.859 33.3711 222.328 33.3711ZM229.396 41H228.262V33.5078H229.396V41ZM228.166 31.4775C228.166 31.2178 228.23 31.0286 228.357 30.9102C228.485 30.7871 228.645 30.7256 228.836 30.7256C229.018 30.7256 229.175 30.7871 229.308 30.9102C229.44 31.0332 229.506 31.2223 229.506 31.4775C229.506 31.7327 229.44 31.9242 229.308 32.0518C229.175 32.1748 229.018 32.2363 228.836 32.2363C228.645 32.2363 228.485 32.1748 228.357 32.0518C228.23 31.9242 228.166 31.7327 228.166 31.4775ZM236.93 41V36.1533C236.93 35.5426 236.791 35.0869 236.513 34.7861C236.235 34.4854 235.799 34.335 235.207 34.335C234.423 34.335 233.849 34.5469 233.484 34.9707C233.12 35.3945 232.938 36.0941 232.938 37.0693V41H231.803V33.5078H232.726L232.91 34.5332H232.965C233.197 34.1641 233.523 33.8792 233.942 33.6787C234.362 33.4736 234.829 33.3711 235.344 33.3711C236.246 33.3711 236.925 33.5898 237.381 34.0273C237.837 34.4603 238.064 35.1553 238.064 36.1123V41H236.93ZM243.396 41.1367C242.312 41.1367 241.471 40.804 240.874 40.1387C240.282 39.4688 239.985 38.5231 239.985 37.3018C239.985 36.0485 240.286 35.0801 240.888 34.3965C241.494 33.7129 242.355 33.3711 243.472 33.3711C243.832 33.3711 244.192 33.4098 244.552 33.4873C244.912 33.5648 245.194 33.6559 245.399 33.7607L245.051 34.7246C244.8 34.6243 244.527 34.5423 244.23 34.4785C243.934 34.4102 243.672 34.376 243.444 34.376C241.922 34.376 241.161 35.3467 241.161 37.2881C241.161 38.2087 241.346 38.915 241.715 39.4072C242.089 39.8994 242.64 40.1455 243.369 40.1455C243.993 40.1455 244.634 40.0111 245.29 39.7422V40.7471C244.789 41.0068 244.158 41.1367 243.396 41.1367ZM248.209 41H247.074V33.5078H248.209V41ZM246.979 31.4775C246.979 31.2178 247.042 31.0286 247.17 30.9102C247.298 30.7871 247.457 30.7256 247.648 30.7256C247.831 30.7256 247.988 30.7871 248.12 30.9102C248.252 31.0332 248.318 31.2223 248.318 31.4775C248.318 31.7327 248.252 31.9242 248.12 32.0518C247.988 32.1748 247.831 32.2363 247.648 32.2363C247.457 32.2363 247.298 32.1748 247.17 32.0518C247.042 31.9242 246.979 31.7327 246.979 31.4775ZM255.715 39.9951H255.653C255.129 40.7562 254.345 41.1367 253.302 41.1367C252.322 41.1367 251.559 40.8018 251.012 40.1318C250.469 39.4619 250.198 38.5094 250.198 37.2744C250.198 36.0394 250.472 35.0801 251.019 34.3965C251.565 33.7129 252.326 33.3711 253.302 33.3711C254.318 33.3711 255.097 33.7402 255.64 34.4785H255.729L255.681 33.9385L255.653 33.4121V30.3633H256.788V41H255.865L255.715 39.9951ZM253.445 40.1865C254.22 40.1865 254.781 39.9769 255.127 39.5576C255.478 39.1338 255.653 38.4525 255.653 37.5137V37.2744C255.653 36.2126 255.476 35.4561 255.12 35.0049C254.769 34.5492 254.206 34.3213 253.432 34.3213C252.766 34.3213 252.256 34.5811 251.9 35.1006C251.549 35.6156 251.374 36.3447 251.374 37.2881C251.374 38.2451 251.549 38.9674 251.9 39.4551C252.251 39.9427 252.766 40.1865 253.445 40.1865ZM260.336 41H259.201V33.5078H260.336V41ZM259.105 31.4775C259.105 31.2178 259.169 31.0286 259.297 30.9102C259.424 30.7871 259.584 30.7256 259.775 30.7256C259.958 30.7256 260.115 30.7871 260.247 30.9102C260.379 31.0332 260.445 31.2223 260.445 31.4775C260.445 31.7327 260.379 31.9242 260.247 32.0518C260.115 32.1748 259.958 32.2363 259.775 32.2363C259.584 32.2363 259.424 32.1748 259.297 32.0518C259.169 31.9242 259.105 31.7327 259.105 31.4775ZM267.842 39.9951H267.78C267.256 40.7562 266.472 41.1367 265.429 41.1367C264.449 41.1367 263.686 40.8018 263.139 40.1318C262.596 39.4619 262.325 38.5094 262.325 37.2744C262.325 36.0394 262.599 35.0801 263.146 34.3965C263.692 33.7129 264.453 33.3711 265.429 33.3711C266.445 33.3711 267.224 33.7402 267.767 34.4785H267.855L267.808 33.9385L267.78 33.4121V30.3633H268.915V41H267.992L267.842 39.9951ZM265.572 40.1865C266.347 40.1865 266.908 39.9769 267.254 39.5576C267.605 39.1338 267.78 38.4525 267.78 37.5137V37.2744C267.78 36.2126 267.603 35.4561 267.247 35.0049C266.896 34.5492 266.333 34.3213 265.559 34.3213C264.893 34.3213 264.383 34.5811 264.027 35.1006C263.676 35.6156 263.501 36.3447 263.501 37.2881C263.501 38.2451 263.676 38.9674 264.027 39.4551C264.378 39.9427 264.893 40.1865 265.572 40.1865ZM272.395 33.5078V38.3682C272.395 38.9788 272.534 39.4346 272.812 39.7354C273.09 40.0361 273.525 40.1865 274.117 40.1865C274.901 40.1865 275.473 39.9723 275.833 39.5439C276.198 39.1156 276.38 38.416 276.38 37.4453V33.5078H277.515V41H276.578L276.414 39.9951H276.353C276.12 40.3643 275.797 40.6468 275.382 40.8428C274.972 41.0387 274.502 41.1367 273.974 41.1367C273.062 41.1367 272.379 40.9202 271.923 40.4873C271.472 40.0544 271.246 39.3617 271.246 38.4092V33.5078H272.395ZM285.055 41V36.1533C285.055 35.5426 284.916 35.0869 284.638 34.7861C284.36 34.4854 283.924 34.335 283.332 34.335C282.548 34.335 281.974 34.5469 281.609 34.9707C281.245 35.3945 281.062 36.0941 281.062 37.0693V41H279.928V33.5078H280.851L281.035 34.5332H281.09C281.322 34.1641 281.648 33.8792 282.067 33.6787C282.487 33.4736 282.954 33.3711 283.469 33.3711C284.371 33.3711 285.05 33.5898 285.506 34.0273C285.962 34.4603 286.189 35.1553 286.189 36.1123V41H285.055ZM290.947 40.2002C291.148 40.2002 291.341 40.1865 291.528 40.1592C291.715 40.1273 291.863 40.0954 291.973 40.0635V40.9316C291.85 40.9909 291.667 41.0387 291.426 41.0752C291.189 41.1162 290.975 41.1367 290.783 41.1367C289.334 41.1367 288.609 40.3734 288.609 38.8467V34.3896H287.536V33.8428L288.609 33.3711L289.088 31.7715H289.744V33.5078H291.918V34.3896H289.744V38.7988C289.744 39.25 289.851 39.5964 290.065 39.8379C290.28 40.0794 290.574 40.2002 290.947 40.2002ZM298.18 33.5078V38.3682C298.18 38.9788 298.319 39.4346 298.597 39.7354C298.875 40.0361 299.31 40.1865 299.902 40.1865C300.686 40.1865 301.258 39.9723 301.618 39.5439C301.983 39.1156 302.165 38.416 302.165 37.4453V33.5078H303.3V41H302.363L302.199 39.9951H302.138C301.905 40.3643 301.582 40.6468 301.167 40.8428C300.757 41.0387 300.287 41.1367 299.759 41.1367C298.847 41.1367 298.164 40.9202 297.708 40.4873C297.257 40.0544 297.031 39.3617 297.031 38.4092V33.5078H298.18ZM308.133 40.2002C308.333 40.2002 308.527 40.1865 308.714 40.1592C308.901 40.1273 309.049 40.0954 309.158 40.0635V40.9316C309.035 40.9909 308.853 41.0387 308.611 41.0752C308.374 41.1162 308.16 41.1367 307.969 41.1367C306.52 41.1367 305.795 40.3734 305.795 38.8467V34.3896H304.722V33.8428L305.795 33.3711L306.273 31.7715H306.93V33.5078H309.104V34.3896H306.93V38.7988C306.93 39.25 307.037 39.5964 307.251 39.8379C307.465 40.0794 307.759 40.2002 308.133 40.2002ZM315.434 41H314.299V30.3633H315.434V41ZM322.447 41L322.222 39.9336H322.167C321.793 40.403 321.42 40.722 321.046 40.8906C320.677 41.0547 320.214 41.1367 319.658 41.1367C318.915 41.1367 318.332 40.9453 317.908 40.5625C317.489 40.1797 317.279 39.6351 317.279 38.9287C317.279 37.4157 318.489 36.6227 320.909 36.5498L322.181 36.5088V36.0439C322.181 35.4561 322.053 35.0231 321.798 34.7451C321.547 34.4626 321.144 34.3213 320.588 34.3213C319.964 34.3213 319.257 34.5127 318.469 34.8955L318.12 34.0273C318.489 33.8268 318.893 33.6696 319.33 33.5557C319.772 33.4417 320.214 33.3848 320.656 33.3848C321.549 33.3848 322.21 33.583 322.639 33.9795C323.072 34.376 323.288 35.0117 323.288 35.8867V41H322.447ZM319.884 40.2002C320.59 40.2002 321.144 40.0065 321.545 39.6191C321.951 39.2318 322.153 38.6895 322.153 37.9922V37.3154L321.019 37.3633C320.116 37.3952 319.465 37.5365 319.063 37.7871C318.667 38.0332 318.469 38.4183 318.469 38.9424C318.469 39.3525 318.592 39.6647 318.838 39.8789C319.089 40.0931 319.437 40.2002 319.884 40.2002ZM329.119 33.3848C330.104 33.3848 330.867 33.722 331.409 34.3965C331.956 35.0664 332.229 36.0166 332.229 37.2471C332.229 38.4775 331.954 39.4346 331.402 40.1182C330.855 40.7972 330.094 41.1367 329.119 41.1367C328.632 41.1367 328.185 41.0479 327.779 40.8701C327.378 40.6878 327.041 40.4098 326.768 40.0361H326.686L326.446 41H325.633V30.3633H326.768V32.9473C326.768 33.526 326.749 34.0456 326.713 34.5059H326.768C327.296 33.7585 328.08 33.3848 329.119 33.3848ZM328.955 34.335C328.18 34.335 327.622 34.5583 327.28 35.0049C326.938 35.4469 326.768 36.1943 326.768 37.2471C326.768 38.2998 326.943 39.054 327.294 39.5098C327.645 39.9609 328.208 40.1865 328.982 40.1865C329.68 40.1865 330.199 39.9336 330.541 39.4277C330.883 38.9173 331.054 38.1859 331.054 37.2334C331.054 36.2581 330.883 35.5312 330.541 35.0527C330.199 34.5742 329.671 34.335 328.955 34.335ZM340.686 37.2471C340.686 38.4684 340.378 39.4232 339.763 40.1113C339.147 40.7949 338.298 41.1367 337.213 41.1367C336.543 41.1367 335.948 40.9795 335.429 40.665C334.909 40.3506 334.508 39.8994 334.226 39.3115C333.943 38.7236 333.802 38.0355 333.802 37.2471C333.802 36.0257 334.107 35.0755 334.718 34.3965C335.328 33.7129 336.176 33.3711 337.261 33.3711C338.309 33.3711 339.141 33.7197 339.756 34.417C340.376 35.1143 340.686 36.0576 340.686 37.2471ZM334.978 37.2471C334.978 38.2041 335.169 38.9333 335.552 39.4346C335.935 39.9359 336.497 40.1865 337.24 40.1865C337.983 40.1865 338.546 39.9382 338.929 39.4414C339.316 38.9401 339.51 38.2087 339.51 37.2471C339.51 36.2946 339.316 35.5723 338.929 35.0801C338.546 34.5833 337.979 34.335 337.227 34.335C336.484 34.335 335.923 34.5788 335.545 35.0664C335.167 35.554 334.978 36.2809 334.978 37.2471ZM346.1 33.3711C346.432 33.3711 346.731 33.3984 346.995 33.4531L346.838 34.5059C346.528 34.4375 346.255 34.4033 346.018 34.4033C345.411 34.4033 344.892 34.6494 344.459 35.1416C344.031 35.6338 343.816 36.2467 343.816 36.9805V41H342.682V33.5078H343.618L343.748 34.8955H343.803C344.081 34.4079 344.416 34.0319 344.808 33.7676C345.2 33.5033 345.63 33.3711 346.1 33.3711ZM351.562 41.1367C350.454 41.1367 349.579 40.7995 348.937 40.125C348.299 39.4505 347.979 38.514 347.979 37.3154C347.979 36.1077 348.276 35.1484 348.868 34.4375C349.465 33.7266 350.265 33.3711 351.268 33.3711C352.206 33.3711 352.949 33.681 353.496 34.3008C354.043 34.916 354.316 35.7295 354.316 36.7412V37.459H349.155C349.178 38.3385 349.399 39.0062 349.818 39.4619C350.242 39.9176 350.837 40.1455 351.603 40.1455C352.409 40.1455 353.207 39.9769 353.995 39.6396V40.6514C353.594 40.8245 353.214 40.9476 352.854 41.0205C352.498 41.098 352.067 41.1367 351.562 41.1367ZM351.254 34.3213C350.652 34.3213 350.172 34.5173 349.812 34.9092C349.456 35.3011 349.246 35.8434 349.183 36.5361H353.1C353.1 35.8206 352.94 35.2738 352.621 34.8955C352.302 34.5127 351.846 34.3213 351.254 34.3213ZM363.06 41.1367C361.952 41.1367 361.077 40.7995 360.435 40.125C359.797 39.4505 359.478 38.514 359.478 37.3154C359.478 36.1077 359.774 35.1484 360.366 34.4375C360.963 33.7266 361.763 33.3711 362.766 33.3711C363.704 33.3711 364.447 33.681 364.994 34.3008C365.541 34.916 365.814 35.7295 365.814 36.7412V37.459H360.653C360.676 38.3385 360.897 39.0062 361.316 39.4619C361.74 39.9176 362.335 40.1455 363.101 40.1455C363.907 40.1455 364.705 39.9769 365.493 39.6396V40.6514C365.092 40.8245 364.712 40.9476 364.352 41.0205C363.996 41.098 363.565 41.1367 363.06 41.1367ZM362.752 34.3213C362.15 34.3213 361.67 34.5173 361.31 34.9092C360.954 35.3011 360.744 35.8434 360.681 36.5361H364.598C364.598 35.8206 364.438 35.2738 364.119 34.8955C363.8 34.5127 363.344 34.3213 362.752 34.3213ZM370.176 40.2002C370.376 40.2002 370.57 40.1865 370.757 40.1592C370.944 40.1273 371.092 40.0954 371.201 40.0635V40.9316C371.078 40.9909 370.896 41.0387 370.654 41.0752C370.417 41.1162 370.203 41.1367 370.012 41.1367C368.562 41.1367 367.838 40.3734 367.838 38.8467V34.3896H366.765V33.8428L367.838 33.3711L368.316 31.7715H368.973V33.5078H371.146V34.3896H368.973V38.7988C368.973 39.25 369.08 39.5964 369.294 39.8379C369.508 40.0794 369.802 40.2002 370.176 40.2002ZM46.3027 63.9951H46.2412C45.7171 64.7562 44.9333 65.1367 43.8896 65.1367C42.9098 65.1367 42.1465 64.8018 41.5996 64.1318C41.0573 63.4619 40.7861 62.5094 40.7861 61.2744C40.7861 60.0394 41.0596 59.0801 41.6064 58.3965C42.1533 57.7129 42.9144 57.3711 43.8896 57.3711C44.9059 57.3711 45.6852 57.7402 46.2275 58.4785H46.3164L46.2686 57.9385L46.2412 57.4121V54.3633H47.376V65H46.4531L46.3027 63.9951ZM44.0332 64.1865C44.8079 64.1865 45.3685 63.9769 45.7148 63.5576C46.0658 63.1338 46.2412 62.4525 46.2412 61.5137V61.2744C46.2412 60.2126 46.0635 59.4561 45.708 59.0049C45.3571 58.5492 44.7943 58.3213 44.0195 58.3213C43.3542 58.3213 42.8438 58.5811 42.4883 59.1006C42.1374 59.6156 41.9619 60.3447 41.9619 61.2881C41.9619 62.2451 42.1374 62.9674 42.4883 63.4551C42.8392 63.9427 43.3542 64.1865 44.0332 64.1865ZM56.2559 61.2471C56.2559 62.4684 55.9482 63.4232 55.333 64.1113C54.7178 64.7949 53.8678 65.1367 52.7832 65.1367C52.1133 65.1367 51.5186 64.9795 50.999 64.665C50.4795 64.3506 50.0785 63.8994 49.7959 63.3115C49.5133 62.7236 49.3721 62.0355 49.3721 61.2471C49.3721 60.0257 49.6774 59.0755 50.2881 58.3965C50.8988 57.7129 51.7464 57.3711 52.8311 57.3711C53.8792 57.3711 54.7109 57.7197 55.3262 58.417C55.946 59.1143 56.2559 60.0576 56.2559 61.2471ZM50.5479 61.2471C50.5479 62.2041 50.7393 62.9333 51.1221 63.4346C51.5049 63.9359 52.0677 64.1865 52.8105 64.1865C53.5534 64.1865 54.1162 63.9382 54.499 63.4414C54.8864 62.9401 55.0801 62.2087 55.0801 61.2471C55.0801 60.2946 54.8864 59.5723 54.499 59.0801C54.1162 58.5833 53.5488 58.335 52.7969 58.335C52.054 58.335 51.4935 58.5788 51.1152 59.0664C50.737 59.554 50.5479 60.2809 50.5479 61.2471ZM59.3867 65H58.252V54.3633H59.3867V65ZM68.2598 61.2471C68.2598 62.4684 67.9521 63.4232 67.3369 64.1113C66.7217 64.7949 65.8717 65.1367 64.7871 65.1367C64.1172 65.1367 63.5225 64.9795 63.0029 64.665C62.4834 64.3506 62.0824 63.8994 61.7998 63.3115C61.5173 62.7236 61.376 62.0355 61.376 61.2471C61.376 60.0257 61.6813 59.0755 62.292 58.3965C62.9027 57.7129 63.7503 57.3711 64.835 57.3711C65.8831 57.3711 66.7148 57.7197 67.3301 58.417C67.9499 59.1143 68.2598 60.0576 68.2598 61.2471ZM62.5518 61.2471C62.5518 62.2041 62.7432 62.9333 63.126 63.4346C63.5088 63.9359 64.0716 64.1865 64.8145 64.1865C65.5573 64.1865 66.1201 63.9382 66.5029 63.4414C66.8903 62.9401 67.084 62.2087 67.084 61.2471C67.084 60.2946 66.8903 59.5723 66.5029 59.0801C66.1201 58.5833 65.5527 58.335 64.8008 58.335C64.0579 58.335 63.4974 58.5788 63.1191 59.0664C62.7409 59.554 62.5518 60.2809 62.5518 61.2471ZM73.6738 57.3711C74.0065 57.3711 74.305 57.3984 74.5693 57.4531L74.4121 58.5059C74.1022 58.4375 73.8288 58.4033 73.5918 58.4033C72.9857 58.4033 72.4661 58.6494 72.0332 59.1416C71.6048 59.6338 71.3906 60.2467 71.3906 60.9805V65H70.2559V57.5078H71.1924L71.3223 58.8955H71.377C71.6549 58.4079 71.9899 58.0319 72.3818 57.7676C72.7738 57.5033 73.2044 57.3711 73.6738 57.3711ZM79.1357 65.1367C78.0283 65.1367 77.1533 64.7995 76.5107 64.125C75.8727 63.4505 75.5537 62.514 75.5537 61.3154C75.5537 60.1077 75.8499 59.1484 76.4424 58.4375C77.0394 57.7266 77.8392 57.3711 78.8418 57.3711C79.7806 57.3711 80.5234 57.681 81.0703 58.3008C81.6172 58.916 81.8906 59.7295 81.8906 60.7412V61.459H76.7295C76.7523 62.3385 76.9733 63.0062 77.3926 63.4619C77.8164 63.9176 78.4111 64.1455 79.1768 64.1455C79.9834 64.1455 80.7809 63.9769 81.5693 63.6396V64.6514C81.1683 64.8245 80.7878 64.9476 80.4277 65.0205C80.0723 65.098 79.6416 65.1367 79.1357 65.1367ZM78.8281 58.3213C78.2266 58.3213 77.7458 58.5173 77.3857 58.9092C77.0303 59.3011 76.8206 59.8434 76.7568 60.5361H80.6738C80.6738 59.8206 80.5143 59.2738 80.1953 58.8955C79.8763 58.5127 79.4206 58.3213 78.8281 58.3213ZM97.0186 65V60.126C97.0186 59.529 96.891 59.0824 96.6357 58.7861C96.3805 58.4854 95.984 58.335 95.4463 58.335C94.7399 58.335 94.2181 58.5378 93.8809 58.9434C93.5436 59.349 93.375 59.9733 93.375 60.8164V65H92.2402V60.126C92.2402 59.529 92.1126 59.0824 91.8574 58.7861C91.6022 58.4854 91.2035 58.335 90.6611 58.335C89.9502 58.335 89.4284 58.5492 89.0957 58.9775C88.7676 59.4014 88.6035 60.0986 88.6035 61.0693V65H87.4688V57.5078H88.3916L88.5762 58.5332H88.6309C88.8451 58.1686 89.1458 57.8838 89.5332 57.6787C89.9251 57.4736 90.3626 57.3711 90.8457 57.3711C92.0169 57.3711 92.7826 57.7949 93.1426 58.6426H93.1973C93.4206 58.2507 93.7441 57.9408 94.168 57.7129C94.5918 57.485 95.0749 57.3711 95.6172 57.3711C96.4648 57.3711 97.0983 57.5898 97.5176 58.0273C97.9414 58.4603 98.1533 59.1553 98.1533 60.1123V65H97.0186ZM105.105 65L104.88 63.9336H104.825C104.451 64.403 104.078 64.722 103.704 64.8906C103.335 65.0547 102.872 65.1367 102.316 65.1367C101.574 65.1367 100.99 64.9453 100.566 64.5625C100.147 64.1797 99.9375 63.6351 99.9375 62.9287C99.9375 61.4157 101.147 60.6227 103.567 60.5498L104.839 60.5088V60.0439C104.839 59.4561 104.711 59.0231 104.456 58.7451C104.205 58.4626 103.802 58.3213 103.246 58.3213C102.622 58.3213 101.915 58.5127 101.127 58.8955L100.778 58.0273C101.147 57.8268 101.551 57.6696 101.988 57.5557C102.43 57.4417 102.872 57.3848 103.314 57.3848C104.208 57.3848 104.868 57.583 105.297 57.9795C105.73 58.376 105.946 59.0117 105.946 59.8867V65H105.105ZM102.542 64.2002C103.248 64.2002 103.802 64.0065 104.203 63.6191C104.609 63.2318 104.812 62.6895 104.812 61.9922V61.3154L103.677 61.3633C102.774 61.3952 102.123 61.5365 101.722 61.7871C101.325 62.0332 101.127 62.4183 101.127 62.9424C101.127 63.3525 101.25 63.6647 101.496 63.8789C101.747 64.0931 102.095 64.2002 102.542 64.2002ZM114.423 57.5078V58.2256L113.035 58.3896C113.163 58.5492 113.277 58.7588 113.377 59.0186C113.477 59.2738 113.527 59.5632 113.527 59.8867C113.527 60.6204 113.277 61.2061 112.775 61.6436C112.274 62.0811 111.586 62.2998 110.711 62.2998C110.488 62.2998 110.278 62.2816 110.082 62.2451C109.599 62.5003 109.357 62.8216 109.357 63.209C109.357 63.4141 109.442 63.5667 109.61 63.667C109.779 63.7627 110.068 63.8105 110.479 63.8105H111.805C112.616 63.8105 113.238 63.9814 113.671 64.3232C114.108 64.665 114.327 65.1618 114.327 65.8135C114.327 66.6429 113.994 67.2741 113.329 67.707C112.664 68.1445 111.693 68.3633 110.417 68.3633C109.437 68.3633 108.681 68.181 108.147 67.8164C107.619 67.4518 107.354 66.9368 107.354 66.2715C107.354 65.8158 107.5 65.4215 107.792 65.0889C108.084 64.7562 108.494 64.5306 109.022 64.4121C108.831 64.3255 108.669 64.1911 108.537 64.0088C108.41 63.8265 108.346 63.6146 108.346 63.373C108.346 63.0996 108.419 62.8604 108.564 62.6553C108.71 62.4502 108.94 62.252 109.255 62.0605C108.868 61.901 108.551 61.6299 108.305 61.2471C108.063 60.8643 107.942 60.4268 107.942 59.9346C107.942 59.1143 108.188 58.4831 108.681 58.041C109.173 57.5944 109.87 57.3711 110.772 57.3711C111.164 57.3711 111.518 57.4167 111.832 57.5078H114.423ZM108.448 66.2578C108.448 66.6634 108.619 66.971 108.961 67.1807C109.303 67.3903 109.793 67.4951 110.431 67.4951C111.383 67.4951 112.087 67.3516 112.543 67.0645C113.003 66.7819 113.233 66.3968 113.233 65.9092C113.233 65.5036 113.108 65.221 112.857 65.0615C112.607 64.9066 112.135 64.8291 111.442 64.8291H110.082C109.567 64.8291 109.166 64.9521 108.879 65.1982C108.592 65.4443 108.448 65.7975 108.448 66.2578ZM109.063 59.9072C109.063 60.4313 109.212 60.8278 109.508 61.0967C109.804 61.3656 110.216 61.5 110.745 61.5C111.853 61.5 112.406 60.9622 112.406 59.8867C112.406 58.7611 111.846 58.1982 110.725 58.1982C110.191 58.1982 109.781 58.3418 109.494 58.6289C109.207 58.916 109.063 59.3421 109.063 59.9072ZM121.088 65V60.1533C121.088 59.5426 120.949 59.0869 120.671 58.7861C120.393 58.4854 119.958 58.335 119.365 58.335C118.581 58.335 118.007 58.5469 117.643 58.9707C117.278 59.3945 117.096 60.0941 117.096 61.0693V65H115.961V57.5078H116.884L117.068 58.5332H117.123C117.355 58.1641 117.681 57.8792 118.101 57.6787C118.52 57.4736 118.987 57.3711 119.502 57.3711C120.404 57.3711 121.083 57.5898 121.539 58.0273C121.995 58.4603 122.223 59.1553 122.223 60.1123V65H121.088ZM129.168 65L128.942 63.9336H128.888C128.514 64.403 128.14 64.722 127.767 64.8906C127.397 65.0547 126.935 65.1367 126.379 65.1367C125.636 65.1367 125.053 64.9453 124.629 64.5625C124.21 64.1797 124 63.6351 124 62.9287C124 61.4157 125.21 60.6227 127.63 60.5498L128.901 60.5088V60.0439C128.901 59.4561 128.774 59.0231 128.519 58.7451C128.268 58.4626 127.865 58.3213 127.309 58.3213C126.684 58.3213 125.978 58.5127 125.189 58.8955L124.841 58.0273C125.21 57.8268 125.613 57.6696 126.051 57.5557C126.493 57.4417 126.935 57.3848 127.377 57.3848C128.27 57.3848 128.931 57.583 129.359 57.9795C129.792 58.376 130.009 59.0117 130.009 59.8867V65H129.168ZM126.604 64.2002C127.311 64.2002 127.865 64.0065 128.266 63.6191C128.671 63.2318 128.874 62.6895 128.874 61.9922V61.3154L127.739 61.3633C126.837 61.3952 126.185 61.5365 125.784 61.7871C125.388 62.0332 125.189 62.4183 125.189 62.9424C125.189 63.3525 125.312 63.6647 125.559 63.8789C125.809 64.0931 126.158 64.2002 126.604 64.2002ZM140.598 65L140.372 63.9336H140.317C139.944 64.403 139.57 64.722 139.196 64.8906C138.827 65.0547 138.365 65.1367 137.809 65.1367C137.066 65.1367 136.482 64.9453 136.059 64.5625C135.639 64.1797 135.43 63.6351 135.43 62.9287C135.43 61.4157 136.64 60.6227 139.06 60.5498L140.331 60.5088V60.0439C140.331 59.4561 140.203 59.0231 139.948 58.7451C139.698 58.4626 139.294 58.3213 138.738 58.3213C138.114 58.3213 137.408 58.5127 136.619 58.8955L136.271 58.0273C136.64 57.8268 137.043 57.6696 137.48 57.5557C137.923 57.4417 138.365 57.3848 138.807 57.3848C139.7 57.3848 140.361 57.583 140.789 57.9795C141.222 58.376 141.438 59.0117 141.438 59.8867V65H140.598ZM138.034 64.2002C138.741 64.2002 139.294 64.0065 139.695 63.6191C140.101 63.2318 140.304 62.6895 140.304 61.9922V61.3154L139.169 61.3633C138.267 61.3952 137.615 61.5365 137.214 61.7871C136.817 62.0332 136.619 62.4183 136.619 62.9424C136.619 63.3525 136.742 63.6647 136.988 63.8789C137.239 64.0931 137.588 64.2002 138.034 64.2002ZM144.918 65H143.783V54.3633H144.918V65ZM148.459 65H147.324V57.5078H148.459V65ZM147.229 55.4775C147.229 55.2178 147.292 55.0286 147.42 54.9102C147.548 54.7871 147.707 54.7256 147.898 54.7256C148.081 54.7256 148.238 54.7871 148.37 54.9102C148.502 55.0332 148.568 55.2223 148.568 55.4775C148.568 55.7327 148.502 55.9242 148.37 56.0518C148.238 56.1748 148.081 56.2363 147.898 56.2363C147.707 56.2363 147.548 56.1748 147.42 56.0518C147.292 55.9242 147.229 55.7327 147.229 55.4775ZM153.695 64.1865C154.452 64.1865 155.003 63.9837 155.35 63.5781C155.696 63.1725 155.881 62.4889 155.903 61.5273V61.2744C155.903 60.2262 155.726 59.472 155.37 59.0117C155.015 58.5514 154.452 58.3213 153.682 58.3213C153.016 58.3213 152.506 58.5811 152.15 59.1006C151.799 59.6156 151.624 60.3447 151.624 61.2881C151.624 62.2314 151.797 62.9515 152.144 63.4482C152.494 63.9404 153.012 64.1865 153.695 64.1865ZM153.524 65.1367C152.558 65.1367 151.804 64.7972 151.262 64.1182C150.719 63.4391 150.448 62.4912 150.448 61.2744C150.448 60.0485 150.722 59.0915 151.269 58.4033C151.815 57.7152 152.576 57.3711 153.552 57.3711C154.577 57.3711 155.366 57.7585 155.917 58.5332H155.979L156.143 57.5078H157.038V68.3633H155.903V65.1572C155.903 64.7015 155.928 64.3141 155.979 63.9951H155.89C155.366 64.7562 154.577 65.1367 153.524 65.1367ZM160.518 57.5078V62.3682C160.518 62.9788 160.657 63.4346 160.935 63.7354C161.213 64.0361 161.648 64.1865 162.24 64.1865C163.024 64.1865 163.596 63.9723 163.956 63.5439C164.321 63.1156 164.503 62.416 164.503 61.4453V57.5078H165.638V65H164.701L164.537 63.9951H164.476C164.243 64.3643 163.92 64.6468 163.505 64.8428C163.095 65.0387 162.625 65.1367 162.097 65.1367C161.185 65.1367 160.502 64.9202 160.046 64.4873C159.595 64.0544 159.369 63.3617 159.369 62.4092V57.5078H160.518ZM172.658 65L172.433 63.9336H172.378C172.004 64.403 171.631 64.722 171.257 64.8906C170.888 65.0547 170.425 65.1367 169.869 65.1367C169.126 65.1367 168.543 64.9453 168.119 64.5625C167.7 64.1797 167.49 63.6351 167.49 62.9287C167.49 61.4157 168.7 60.6227 171.12 60.5498L172.392 60.5088V60.0439C172.392 59.4561 172.264 59.0231 172.009 58.7451C171.758 58.4626 171.355 58.3213 170.799 58.3213C170.174 58.3213 169.468 58.5127 168.68 58.8955L168.331 58.0273C168.7 57.8268 169.104 57.6696 169.541 57.5557C169.983 57.4417 170.425 57.3848 170.867 57.3848C171.76 57.3848 172.421 57.583 172.85 57.9795C173.283 58.376 173.499 59.0117 173.499 59.8867V65H172.658ZM170.095 64.2002C170.801 64.2002 171.355 64.0065 171.756 63.6191C172.161 63.2318 172.364 62.6895 172.364 61.9922V61.3154L171.229 61.3633C170.327 61.3952 169.675 61.5365 169.274 61.7871C168.878 62.0332 168.68 62.4183 168.68 62.9424C168.68 63.3525 168.803 63.6647 169.049 63.8789C169.299 64.0931 169.648 64.2002 170.095 64.2002Z" fill="white"/>
<path fill-rule="evenodd" clip-rule="evenodd" d="M6.1875 7C2.74018 7 0 9.79 0 13.3C0 17.98 6.1875 25 6.1875 25C6.1875 25 12.375 17.98 12.375 13.3C12.375 9.79 9.63482 7 6.1875 7ZM6.1875 15.55C4.95 15.55 3.97768 14.56 3.97768 13.3C3.97768 12.04 4.95 11.05 6.1875 11.05C7.425 11.05 8.39732 12.04 8.39732 13.3C8.39732 14.56 7.425 15.55 6.1875 15.55Z" fill="white"/>
</svg>
