<svg width="214" height="535" viewBox="0 0 214 535" fill="none" xmlns="http://www.w3.org/2000/svg">
<path fill-rule="evenodd" clip-rule="evenodd" d="M214 535C214 535 174.718 534.086 156.069 499.052C137.42 464.018 137.574 388.255 97.8142 392.397C58.054 396.539 15.5658 379.594 30.651 331.87C45.7363 284.146 80.9717 290.061 89.393 212.273C97.8142 134.484 28.8637 228.421 17.4754 176.696C13.0281 156.497 23.5837 153.774 7.21743 131.049C1.78416 123.505 -0.84319 112.573 0.240075 108.324C0.240075 108.324 5.28841 0.938348 7.21743 3.09944e-06C13.3432 -2.9798 21.6328 -2 34.7662 -2C77.1812 -2 214 3.09944e-06 214 3.09944e-06V535Z" fill="url(#paint0_linear_0_6)"/>
<defs>
<linearGradient id="paint0_linear_0_6" x1="166.152" y1="-324.274" x2="-190.058" y2="-224.185" gradientUnits="userSpaceOnUse">
<stop stop-color="white" stop-opacity="0.01"/>
<stop offset="1" stop-color="#C9F0FF"/>
</linearGradient>
</defs>
</svg>
